<svg width="727" height="158" viewBox="0 0 727 158" fill="none" xmlns="http://www.w3.org/2000/svg">
<path d="M45.4875 108.269C42.2878 108.225 38.4903 108.022 34.0949 107.66C32.4964 107.538 30.498 107.41 28.0996 107.276C25.8013 107.144 23.2022 107.058 20.3025 107.018L9.20149 107.012C7.20029 107.085 4.49986 107.097 1.10019 107.049C0.900207 107.046 0.804407 106.745 0.812788 106.145C0.821169 105.545 0.92535 105.247 1.12533 105.249C4.32502 105.294 6.67828 105.077 8.18512 104.598C9.69196 104.119 10.7051 103.183 11.2246 101.79C11.8455 100.299 12.1769 98.0531 12.2188 95.0534L13.1889 25.6102C13.2308 22.6105 12.9616 20.4065 12.3812 18.9983C11.9008 17.5914 10.9142 16.6275 9.42129 16.1066C8.0298 15.4871 5.78421 15.1558 2.68451 15.1125C2.38454 15.1083 2.23875 14.8062 2.24713 14.2063C2.25551 13.6063 2.40969 13.3084 2.70966 13.3126L10.6568 13.5737C15.2535 13.8379 18.9018 13.9889 21.6015 14.0266C25.7011 14.0838 29.9028 13.9925 34.2066 13.7526C39.4089 13.6253 42.9099 13.5742 44.7097 13.5993C54.8088 13.7404 63.73 15.8652 71.4733 19.9738C79.3167 24.0837 85.34 29.6184 89.5432 36.5778C93.7464 43.5372 95.7879 51.3165 95.6678 59.9156C95.5323 69.6147 93.1624 78.1824 88.5581 85.6188C84.0551 92.9566 77.9754 98.6223 70.3189 102.616C62.7637 106.511 54.4866 108.395 45.4875 108.269ZM44.0358 104.799C50.4352 104.888 56.107 103.367 61.0512 100.236C65.9968 97.0048 69.8642 92.2083 72.6533 85.8467C75.5425 79.4864 77.0492 71.8567 77.1735 62.9576C77.2922 54.4584 76.0999 46.741 73.5965 39.8054C71.0946 32.7697 67.4717 27.2186 62.7281 23.1519C57.9844 19.0853 52.4629 17.0079 46.1635 16.9199C39.9641 16.8333 35.7061 17.3739 33.3896 18.5417C31.0731 19.7094 29.8876 22.2431 29.8331 26.1427L28.8903 93.6362C28.8344 97.6358 29.8445 100.5 31.9205 102.229C33.998 103.858 38.0364 104.715 44.0358 104.799ZM165.309 101.242C165.709 101.248 165.955 101.501 166.048 102.003C166.243 102.406 166.139 102.704 165.736 102.899L150.185 110.032C149.782 110.226 149.281 110.319 148.681 110.311C147.181 110.29 145.692 109.519 144.213 107.998C142.834 106.479 141.862 104.415 141.299 101.807L134.347 105.46C131.729 106.724 129.014 107.786 126.202 108.647C123.391 109.408 120.886 109.773 118.686 109.742C115.486 109.697 112.948 108.862 111.07 107.235C109.294 105.51 108.428 103.098 108.471 99.9984C108.503 97.6986 109.079 95.8564 110.198 94.4719C111.418 93.0888 113.084 91.962 115.196 91.0914C117.41 90.1222 120.878 88.8706 125.599 87.3364L140.967 82.6006L141.133 70.7517C141.216 64.7523 140.678 60.3444 139.517 57.5279C138.358 54.6114 136.428 53.1343 133.728 53.0966C131.329 53.0631 129.416 53.9364 127.991 55.7167C126.566 57.497 125.675 60.4348 125.318 64.5302C124.64 70.1213 121.651 72.8798 116.351 72.8058C111.652 72.7401 109.331 70.6575 109.388 66.5579C109.426 63.8582 111.163 61.1822 114.601 58.5299C118.038 55.8777 122.168 53.7352 126.992 52.1024C131.815 50.4696 136.026 49.6783 139.626 49.7286C144.326 49.7943 148.106 51.2472 150.966 54.0875C153.927 56.9291 155.369 61.0496 155.294 66.4491L154.923 92.9965C154.883 95.8962 155.351 98.153 156.329 99.7668C157.406 101.382 158.895 102.203 160.795 102.229C162.195 102.249 163.649 101.919 165.159 101.24L165.309 101.242ZM140.882 99.401C140.792 98.6997 140.757 97.6491 140.776 96.2492L140.931 85.1503L132.64 88.0348C129.927 88.997 127.961 90.0696 126.745 91.2528C125.628 92.4373 125.058 93.8794 125.034 95.5793C125.005 97.6791 125.582 99.3373 126.765 100.554C127.948 101.771 129.439 102.391 131.239 102.417C133.439 102.447 135.999 101.783 138.918 100.424L140.882 99.401ZM214.012 50.1677C218.512 50.2305 222.646 51.3384 226.417 53.4913C230.187 55.6442 233.143 58.8358 235.284 63.0661C237.525 67.2978 238.604 72.4134 238.52 78.4128C238.419 85.6121 236.784 91.7398 233.613 96.796C230.542 101.854 226.488 105.647 221.452 108.177C216.517 110.709 211.249 111.935 205.649 111.857C201.85 111.804 198.109 111.152 194.426 109.9C190.843 108.65 187.568 106.854 184.6 104.512L170.865 110.471L170.565 110.467C170.166 110.461 169.918 110.258 169.824 109.856C169.73 109.455 169.883 109.207 170.284 109.113C172.704 107.746 174.53 105.872 175.763 103.489C177.098 101.007 177.792 97.8664 177.845 94.0668L178.864 21.1739C178.912 17.6742 178.597 15.1696 177.918 13.66C177.339 12.1517 176.2 11.3857 174.5 11.362C173.2 11.3438 171.343 11.8679 168.928 12.9343L168.778 12.9322C168.378 12.9266 168.081 12.6725 167.888 12.1697C167.697 11.567 167.702 11.217 167.903 11.1198L189.945 1.07674L190.697 0.937228C191.197 0.944212 191.694 1.20117 192.187 1.70811C192.781 2.11645 193.075 2.5206 193.07 2.92056L192.274 59.915C195.617 56.8614 199.001 54.4584 202.425 52.7061C205.85 50.9538 209.712 50.1076 214.012 50.1677ZM209.291 108.907C213.591 108.968 216.921 106.814 219.282 102.446C221.643 98.079 222.879 91.9456 222.99 84.0464C223.111 75.3472 221.751 68.8776 218.91 64.6375C216.071 60.2974 212.051 58.0911 206.852 58.0184C202.152 57.9528 197.279 59.5849 192.232 62.9147L191.924 84.9626C191.847 90.462 192.733 95.0248 194.583 98.651C196.434 102.177 198.698 104.759 201.375 106.397C204.053 108.034 206.691 108.871 209.291 108.907ZM288.492 51.6582C290.792 51.6903 292.98 52.5709 295.056 54.3001C297.233 55.9307 298.306 57.8959 298.274 60.1956C298.245 62.2954 297.57 64.0362 296.251 65.4179C294.933 66.6996 293.224 67.3258 291.124 67.2965C289.624 67.2755 288.378 66.9581 287.387 66.3442C286.495 65.7317 285.558 64.8185 284.575 63.6046C283.689 62.5921 282.899 61.881 282.204 61.4713C281.612 60.963 280.865 60.7025 279.965 60.6899C278.965 60.676 277.86 61.0606 276.649 61.8437C275.539 62.5283 273.768 64.0537 271.334 66.42L270.884 98.6668C270.828 102.666 271.739 105.429 273.618 106.956C275.499 108.382 278.988 109.131 284.088 109.202C284.488 109.208 284.684 109.511 284.675 110.111C284.667 110.711 284.463 111.008 284.063 111.002C280.563 110.953 277.814 110.865 275.816 110.737L263.669 110.417L254.818 110.444C253.317 110.523 251.266 110.544 248.666 110.508C248.366 110.503 248.22 110.201 248.229 109.601C248.237 109.001 248.391 108.704 248.691 108.708C251.791 108.751 253.901 108.081 255.02 106.696C256.141 105.212 256.729 102.469 256.785 98.4699L257.179 70.2726C257.222 67.1729 256.854 64.9175 256.073 63.5065C255.395 61.9969 254.255 61.2309 252.655 61.2085C250.955 61.1848 248.546 61.8512 245.427 63.2078L245.127 63.2036C244.827 63.1994 244.58 62.9459 244.387 62.4432C244.294 61.9418 244.348 61.6425 244.55 61.5454L265.54 51.6376C266.143 51.446 266.494 51.3509 266.594 51.3523C267.694 51.3676 268.679 52.4315 269.55 54.5439C270.522 56.5576 271.083 59.3158 271.235 62.8182C275.393 58.6759 278.784 55.773 281.407 54.1095C284.131 52.4473 286.492 51.6302 288.492 51.6582ZM366.6 54.2494C366.8 54.2522 366.895 54.5536 366.887 55.1535C366.879 55.7535 366.774 56.052 366.574 56.0493C363.375 56.0046 360.555 57.3653 358.117 60.1315C355.779 62.7991 353.624 66.7194 351.652 71.8924L334.385 115.905C328.89 129.83 323.654 139.558 318.676 145.089C313.797 150.721 308.408 153.496 302.508 153.414C299.508 153.372 297.218 152.69 295.636 151.368C294.053 150.145 293.278 148.334 293.312 145.935C293.344 143.635 294.068 141.895 295.485 140.715C296.901 139.534 298.61 138.958 300.609 138.986C301.709 139.001 302.607 139.164 303.303 139.474C304.099 139.785 305.042 140.298 306.132 141.013C308.013 142.34 309.804 143.015 311.504 143.039C313.804 143.071 315.866 142.199 317.691 140.425C319.615 138.751 321.605 135.879 323.662 131.807C325.718 127.836 328.198 122.12 331.102 114.659L307.781 65.879C305.642 61.5487 303.932 58.6745 302.651 57.2565C301.471 55.8399 299.981 55.119 298.181 55.0938C297.881 55.0897 297.735 54.7876 297.744 54.1876C297.752 53.5877 297.906 53.2898 298.206 53.294C301.006 53.3331 303.155 53.4132 304.653 53.5341L310.951 53.7721L321.302 53.7667C322.903 53.689 325.054 53.6691 327.753 53.7068C328.053 53.711 328.199 54.013 328.191 54.613C328.182 55.2129 328.028 55.5108 327.728 55.5066C325.128 55.4703 323.225 55.6937 322.018 56.1769C320.813 56.5601 320.203 57.2517 320.189 58.2516C320.178 59.0515 320.464 60.0556 321.047 61.2638L338.24 97.6575L347.604 71.6858C348.54 69.0986 349.023 66.7551 349.052 64.6553C349.092 61.8556 348.322 59.6947 346.743 58.1725C345.165 56.5503 342.877 55.7182 339.877 55.6763C339.677 55.6735 339.581 55.3721 339.59 54.7722C339.598 54.1723 339.702 53.8737 339.902 53.8765C342.602 53.9142 344.651 53.9928 346.049 54.1124L355.046 54.3881L361.048 54.3219C362.249 54.2387 364.1 54.2145 366.6 54.2494ZM412.397 102.294C412.797 102.299 413.094 102.504 413.288 102.906C413.582 103.31 413.578 103.61 413.276 103.806C409.524 107.454 405.886 110.154 402.361 111.905C398.838 113.556 395.126 114.354 391.227 114.299C386.827 114.238 383.092 113.136 380.022 110.992C376.952 108.849 375.451 105.278 375.521 100.279L375.986 66.9818C376.03 63.8821 375.51 61.7246 374.427 60.5094C373.343 59.2941 371.352 58.6662 368.452 58.6257C368.352 58.6243 368.204 58.4723 368.009 58.1695C367.913 57.8681 367.867 57.5675 367.871 57.2675C367.877 56.8675 367.931 56.5683 368.034 56.3697C368.138 56.0711 368.29 55.9232 368.49 55.926C373.592 55.7973 377.707 54.7546 380.835 52.7981C384.062 50.843 386.555 47.8275 388.312 43.7517C388.518 43.3545 388.92 43.1601 389.52 43.1685C390.22 43.1783 390.567 43.3831 390.562 43.7831L390.394 55.7819C396.195 55.763 402.701 55.4038 409.911 54.7044C410.111 54.7072 410.305 55.11 410.494 55.9127C410.784 56.6168 410.923 57.4188 410.911 58.3188C410.897 59.3187 410.683 60.3158 410.269 61.3101C409.956 62.2058 409.601 62.6009 409.202 62.4953C402.722 61.0046 396.433 60.1667 390.335 59.9815L389.839 95.5281C389.786 99.3277 390.697 102.141 392.571 103.967C394.546 105.795 397.133 106.731 400.333 106.776C404.332 106.832 408.253 105.386 412.095 102.44L412.397 102.294ZM432.447 62.37C432.406 65.2697 433.371 67.7834 435.342 69.9111C437.412 72.0403 440.381 74.282 444.249 76.6362C448.018 78.8891 450.793 80.678 452.575 82.003C454.458 83.2295 456.133 85.003 457.601 87.3238C459.07 89.5445 459.782 92.2547 459.737 95.4544C459.69 98.8541 458.795 102.042 457.054 105.018C455.312 107.994 452.728 110.408 449.302 112.26C445.877 114.013 441.815 114.856 437.115 114.79C431.616 114.713 426.435 113.291 421.573 110.523C420.982 109.914 420.69 109.31 420.698 108.71L420.606 93.8577C420.61 93.5577 420.862 93.4112 421.362 93.4182C421.963 93.3266 422.313 93.3814 422.41 93.5828C423.94 98.6047 426.53 102.891 430.181 106.443C433.832 109.994 437.557 111.796 441.357 111.849C443.456 111.879 445.115 111.252 446.333 109.969C447.651 108.687 448.328 106.796 448.363 104.296C448.414 100.597 447.405 97.6824 445.335 95.5532C443.265 93.3241 440.197 91.031 436.13 88.674C432.657 86.7253 430.029 85.1384 428.245 83.9134C426.462 82.6884 424.886 80.9662 423.517 78.7468C422.148 76.5275 421.486 73.818 421.531 70.6183C421.613 64.7189 423.773 60.4486 428.01 57.8076C432.249 55.0665 437.418 53.7386 443.517 53.8238C445.817 53.8559 447.865 54.0345 449.66 54.3596C451.556 54.6861 453.647 55.3154 455.935 56.2475C456.83 56.56 457.273 57.1162 457.261 57.9161C457.227 60.4159 457.149 62.365 457.03 63.7635L456.775 71.2607C456.771 71.5606 456.469 71.7064 455.869 71.698C455.269 71.6897 454.971 71.5355 454.975 71.2355C455.002 69.3357 454.23 67.2747 452.661 65.0526C451.094 62.7305 449.021 60.7513 446.444 59.1152C443.966 57.4804 441.378 56.6442 438.678 56.6064C434.578 56.5492 432.501 58.4704 432.447 62.37Z" fill="black"/>
<path d="M539.14 112.765C539.44 112.769 539.586 113.071 539.578 113.671C539.569 114.271 539.415 114.569 539.115 114.565C536.516 114.529 534.466 114.45 532.968 114.329L523.971 114.053L512.42 114.042C510.719 114.118 508.418 114.136 505.519 114.096C505.219 114.091 505.073 113.789 505.081 113.189C505.09 112.59 505.244 112.292 505.544 112.296C509.143 112.346 510.958 111.321 510.987 109.222C511.003 108.122 510.617 107.116 509.829 106.205L493.037 84.0684L490.151 86.5784L489.94 101.727C489.884 105.726 490.395 108.484 491.474 109.999C492.655 111.416 494.795 112.146 497.894 112.189C498.294 112.195 498.49 112.497 498.482 113.097C498.473 113.697 498.269 113.994 497.869 113.989C495.27 113.953 493.17 113.873 491.572 113.751L482.875 113.479L473.874 113.504C472.372 113.583 470.322 113.604 467.722 113.568C467.522 113.565 467.426 113.264 467.435 112.664C467.443 112.064 467.547 111.765 467.747 111.768C470.847 111.811 472.957 111.141 474.076 109.756C475.297 108.273 475.935 105.532 475.991 101.532L477.056 25.3394C477.104 21.8398 476.789 19.3351 476.11 17.8255C475.531 16.3173 474.442 15.552 472.842 15.5296C471.442 15.5101 469.535 16.0335 467.12 17.0999L466.97 17.0978C466.67 17.0936 466.373 16.8394 466.08 16.3353C465.889 15.7325 465.894 15.3826 466.095 15.2854L488.137 5.24228L488.889 5.10277C489.389 5.10976 489.886 5.36672 490.379 5.87365C490.973 6.28199 491.267 6.68615 491.262 7.08611L490.2 83.1287L504.337 69.8249C506.97 67.4614 508.304 65.0298 508.339 62.5301C508.357 61.2302 507.872 60.1733 506.883 59.3594C505.896 58.4455 504.502 57.976 502.703 57.9509C502.503 57.9481 502.407 57.6467 502.415 57.0468C502.423 56.4468 502.528 56.1483 502.728 56.151C505.627 56.1916 507.876 56.273 509.475 56.3953L521.322 56.7108L532.273 56.7138C533.674 56.6334 535.624 56.6106 538.124 56.6455C538.424 56.6497 538.57 56.9518 538.562 57.5517C538.553 58.1517 538.399 58.4495 538.099 58.4453C533.799 58.3853 528.835 59.416 523.204 61.5376C517.676 63.5606 512.683 66.5911 508.226 70.6293L502.757 75.5034L522.937 102.188C525.786 105.828 528.499 108.516 531.075 110.252C533.752 111.89 536.441 112.727 539.14 112.765ZM601.204 107.332C601.604 107.337 601.85 107.591 601.943 108.092C602.138 108.495 602.034 108.793 601.631 108.988L586.08 116.121C585.677 116.316 585.176 116.409 584.576 116.4C583.076 116.379 581.586 115.608 580.108 114.088C578.729 112.568 577.757 110.504 577.194 107.896L570.242 111.549C567.624 112.813 564.909 113.875 562.097 114.736C559.286 115.497 556.781 115.862 554.581 115.831C551.381 115.786 548.842 114.951 546.965 113.325C545.189 111.6 544.323 109.187 544.366 106.088C544.398 103.788 544.974 101.946 546.093 100.561C547.313 99.178 548.979 98.0512 551.091 97.1806C553.305 96.2114 556.772 94.9597 561.494 93.4255L576.862 88.6897L577.028 76.8409C577.111 70.8415 576.573 66.4335 575.412 63.617C574.253 60.7006 572.323 59.2235 569.623 59.1857C567.224 59.1522 565.311 60.0256 563.886 61.8059C562.461 63.5861 561.57 66.524 561.213 70.6194C560.535 76.2105 557.546 78.969 552.246 78.8949C547.547 78.8293 545.226 76.7467 545.283 72.6471C545.321 69.9473 547.058 67.2713 550.496 64.6191C553.933 61.9668 558.063 59.8243 562.887 58.1915C567.71 56.5588 571.921 55.7675 575.521 55.8178C580.221 55.8834 584.001 57.3364 586.861 60.1766C589.822 63.0182 591.264 67.1388 591.189 72.5383L590.818 99.0857C590.778 101.985 591.246 104.242 592.224 105.856C593.301 107.471 594.79 108.292 596.69 108.319C598.09 108.338 599.544 108.008 601.054 107.329L601.204 107.332ZM576.777 105.49C576.687 104.789 576.652 103.738 576.671 102.338L576.826 91.2395L568.535 94.124C565.822 95.0861 563.856 96.1588 562.64 97.3419C561.523 98.5264 560.953 99.9686 560.929 101.668C560.9 103.768 561.477 105.426 562.66 106.643C563.843 107.86 565.334 108.481 567.134 108.506C569.334 108.537 571.894 107.872 574.813 106.513L576.777 105.49ZM667.449 58.4521C667.649 58.4549 667.745 58.7563 667.736 59.3562C667.728 59.9561 667.624 60.2547 667.424 60.2519C664.224 60.2072 661.405 61.568 658.966 64.3342C656.629 67.0018 654.474 70.9221 652.501 76.095L635.235 120.108C629.74 134.033 624.503 143.761 619.526 149.292C614.646 154.924 609.257 157.699 603.358 157.617C600.358 157.575 598.067 156.893 596.486 155.57C594.903 154.348 594.128 152.537 594.161 150.137C594.193 147.838 594.918 146.098 596.334 144.917C597.751 143.737 599.459 143.161 601.459 143.189C602.559 143.204 603.457 143.367 604.152 143.676C604.948 143.987 605.891 144.501 606.981 145.216C608.863 146.542 610.654 147.217 612.353 147.241C614.653 147.273 616.716 146.402 618.541 144.627C620.464 142.954 622.454 140.082 624.512 136.01C626.567 132.038 629.047 126.322 631.952 118.862L608.631 70.0817C606.491 65.7514 604.781 62.8772 603.501 61.4592C602.32 60.0425 600.83 59.3217 599.031 59.2965C598.731 59.2923 598.585 58.9903 598.593 58.3903C598.602 57.7904 598.756 57.4925 599.056 57.4967C601.855 57.5358 604.005 57.6158 605.503 57.7368L611.8 57.9748L622.151 57.9693C623.753 57.8917 625.903 57.8717 628.603 57.9094C628.903 57.9136 629.049 58.2157 629.04 58.8156C629.032 59.4156 628.878 59.7135 628.578 59.7093C625.978 59.6729 624.075 59.8964 622.868 60.3796C621.662 60.7628 621.053 61.4543 621.039 62.4542C621.027 63.2541 621.313 64.2582 621.897 65.4665L639.09 101.86L648.454 75.8885C649.39 73.3013 649.873 70.9578 649.902 68.858C649.941 66.0583 649.171 63.8973 647.592 62.3751C646.015 60.7529 643.726 59.9209 640.727 59.879C640.527 59.8762 640.431 59.5748 640.439 58.9749C640.448 58.3749 640.552 58.0764 640.752 58.0792C643.451 58.1169 645.501 58.1955 646.899 58.315L655.896 58.5907L661.898 58.5246C663.099 58.4413 664.949 58.4172 667.449 58.4521ZM725.704 109.071C726.104 109.076 726.35 109.33 726.443 109.831C726.637 110.234 726.533 110.532 726.13 110.727L710.579 117.86C710.177 118.055 709.675 118.148 709.075 118.139C707.575 118.118 706.086 117.348 704.607 115.827C703.228 114.307 702.257 112.244 701.693 109.635L694.742 113.289C692.124 114.552 689.409 115.614 686.596 116.475C683.785 117.236 681.28 117.601 679.08 117.57C675.881 117.526 673.342 116.69 671.465 115.064C669.688 113.339 668.822 110.926 668.865 107.827C668.898 105.527 669.473 103.685 670.593 102.3C671.812 100.917 673.478 99.7903 675.59 98.9198C677.804 97.9506 681.272 96.6989 685.994 95.1647L701.362 90.4289L701.527 78.5801C701.611 72.5806 701.072 68.1727 699.912 65.3562C698.752 62.4397 696.823 60.9626 694.123 60.9249C691.723 60.8914 689.811 61.7648 688.386 63.545C686.961 65.3253 686.07 68.2631 685.712 72.3586C685.034 77.9496 682.045 80.7082 676.746 80.6341C672.046 80.5685 669.725 78.4858 669.783 74.3862C669.82 71.6865 671.558 69.0105 674.995 66.3583C678.433 63.706 682.563 61.5635 687.386 59.9307C692.209 58.2979 696.421 57.5067 700.021 57.557C704.72 57.6226 708.5 59.0756 711.361 61.9158C714.321 64.7574 715.764 68.878 715.689 74.2774L715.318 100.825C715.277 103.725 715.746 105.981 716.723 107.595C717.801 109.21 719.29 110.031 721.189 110.058C722.589 110.077 724.044 109.748 725.554 109.069L725.704 109.071ZM701.277 107.229C701.187 106.528 701.151 105.477 701.171 104.078L701.326 92.9787L693.035 95.8631C690.321 96.8253 688.356 97.898 687.139 99.0811C686.023 100.266 685.452 101.708 685.429 103.408C685.399 105.507 685.976 107.166 687.159 108.382C688.343 109.599 689.834 110.22 691.634 110.245C693.834 110.276 696.393 109.611 699.312 108.252L701.277 107.229Z" fill="white"/>
</svg>
