<svg width="251" height="67" viewBox="0 0 251 67" fill="none" xmlns="http://www.w3.org/2000/svg">
<path d="M72.7 64.8C73.0333 64.8 73.2 65 73.2 65.4C73.2 65.8 73.0333 66 72.7 66C71.3667 66 69.3 65.9333 66.5 65.8C63.5667 65.6667 61.4667 65.6 60.2 65.6C58.5333 65.6 56.5 65.6667 54.1 65.8C51.8333 65.9333 50.0333 66 48.7 66C48.4333 66 48.3 65.8 48.3 65.4C48.3 65 48.4333 64.8 48.7 64.8C50.4333 64.8 51.6667 64.6333 52.4 64.3C53.2 63.9 53.6 63.2333 53.6 62.3C53.6 61.1667 52.9333 59.2667 51.6 56.6L41.2 36.1H23.4L16.3 51.8C15.4333 53.7333 15 55.5333 15 57.2C15 59.6 15.8333 61.4667 17.5 62.8C19.2333 64.1333 21.5333 64.8 24.4 64.8C24.7333 64.8 24.9 65 24.9 65.4C24.9 65.8 24.7333 66 24.4 66C23.2 66 21.4667 65.9333 19.2 65.8C16.6667 65.6667 14.4667 65.6 12.6 65.6C10.8 65.6 8.63333 65.6667 6.1 65.8C3.83333 65.9333 2 66 0.6 66C0.333333 66 0.2 65.8 0.2 65.4C0.2 65 0.333333 64.8 0.6 64.8C2.46667 64.8 4.03333 64.4333 5.3 63.7C6.56667 62.9 7.83333 61.5333 9.1 59.6C10.3667 57.6 11.8667 54.6667 13.6 50.8L35.3 3.1C35.4333 2.9 35.7333 2.8 36.2 2.8C36.7333 2.8 37.0333 2.9 37.1 3.1L62.1 52.3C64.4333 57.0333 66.3667 60.3 67.9 62.1C69.4333 63.9 71.0333 64.8 72.7 64.8ZM24.7 33.3H39.8L31.8 17.5L24.7 33.3ZM132.02 30.9C137.62 31.5667 142.053 33.4333 145.32 36.5C148.653 39.5667 150.32 43.3667 150.32 47.9C150.32 51.3667 149.32 54.5 147.32 57.3C145.32 60.1 142.553 62.3333 139.02 64C135.486 65.6 131.553 66.4 127.22 66.4C125.353 66.4 123.22 66.3 120.82 66.1C119.886 66.0333 118.72 65.9667 117.32 65.9C115.986 65.8333 114.486 65.8 112.82 65.8L105.52 65.9C104.186 65.9667 102.386 66 100.12 66C99.9195 66 99.8195 65.8 99.8195 65.4C99.8195 65 99.9195 64.8 100.12 64.8C102.053 64.8 103.52 64.6333 104.52 64.3C105.52 63.9 106.22 63.2333 106.62 62.3C107.086 61.3 107.32 59.8333 107.32 57.9V11.6C107.32 8.8 106.853 6.96666 105.92 6.1C104.986 5.16666 103.086 4.7 100.22 4.7C100.086 4.7 100.02 4.5 100.02 4.1C100.02 3.7 100.086 3.5 100.22 3.5L105.52 3.6C108.586 3.73333 111.02 3.8 112.82 3.8C114.686 3.8 116.62 3.7 118.62 3.5C119.286 3.43333 120.286 3.36666 121.62 3.3C122.953 3.23333 124.12 3.2 125.12 3.2C131.186 3.2 135.886 4.3 139.22 6.5C142.553 8.7 144.22 11.9 144.22 16.1C144.22 19.3 143.153 22.2 141.02 24.8C138.953 27.4 135.953 29.4333 132.02 30.9ZM123.62 5.4C121.686 5.4 120.353 5.86667 119.62 6.8C118.886 7.66666 118.52 9.33333 118.52 11.8V30.8L122.52 30.9C125.986 30.9 128.653 29.6 130.52 27C132.386 24.4 133.32 21.0667 133.32 17C133.32 13.2 132.486 10.3333 130.82 8.4C129.153 6.4 126.753 5.4 123.62 5.4ZM125.52 63.9C134.253 63.9 138.62 59.3667 138.62 50.3C138.62 45.1667 137.386 41.1 134.92 38.1C132.453 35.1 128.72 33.6 123.72 33.6C121.786 33.6 120.053 33.6667 118.52 33.8V57.9C118.52 60.1 118.953 61.6667 119.82 62.6C120.686 63.4667 122.586 63.9 125.52 63.9ZM178.192 57.9C178.192 59.9667 178.359 61.4667 178.692 62.4C179.026 63.3333 179.659 63.9667 180.592 64.3C181.592 64.6333 183.159 64.8 185.292 64.8C185.492 64.8 185.592 65 185.592 65.4C185.592 65.8 185.492 66 185.292 66C183.092 66 181.359 65.9667 180.092 65.9L172.492 65.8L165.092 65.9C163.759 65.9667 161.959 66 159.692 66C159.559 66 159.492 65.8 159.492 65.4C159.492 65 159.559 64.8 159.692 64.8C161.826 64.8 163.392 64.6333 164.392 64.3C165.392 63.9667 166.059 63.3333 166.392 62.4C166.792 61.4 166.992 59.9 166.992 57.9V11.6C166.992 9.6 166.792 8.13333 166.392 7.2C166.059 6.26666 165.392 5.63333 164.392 5.29999C163.392 4.9 161.826 4.7 159.692 4.7C159.559 4.7 159.492 4.5 159.492 4.1C159.492 3.7 159.559 3.5 159.692 3.5L165.092 3.6C168.159 3.73333 170.626 3.8 172.492 3.8C174.559 3.8 177.126 3.73333 180.192 3.6L185.292 3.5C185.492 3.5 185.592 3.7 185.592 4.1C185.592 4.5 185.492 4.7 185.292 4.7C183.226 4.7 181.692 4.9 180.692 5.29999C179.692 5.7 179.026 6.4 178.692 7.4C178.359 8.33333 178.192 9.8 178.192 11.8V57.9ZM211.872 5.79999C203.939 5.79999 198.239 10.9667 194.772 21.3C194.705 21.5 194.505 21.6 194.172 21.6C193.839 21.5333 193.672 21.4 193.672 21.2C193.939 18.5333 194.239 15.1 194.572 10.9C194.905 6.63333 195.072 3.43333 195.072 1.3C195.072 0.966666 195.239 0.799999 195.572 0.799999C195.972 0.799999 196.172 0.966666 196.172 1.3C196.172 2.76667 198.072 3.5 201.872 3.5C207.605 3.7 214.305 3.8 221.972 3.8C225.905 3.8 230.072 3.73333 234.472 3.6L241.272 3.5C243.805 3.5 245.639 3.33333 246.772 2.99999C247.972 2.66666 248.739 2 249.072 0.999996C249.139 0.733329 249.339 0.599996 249.672 0.599996C250.072 0.599996 250.272 0.733329 250.272 0.999996C250.072 3 249.839 6.2 249.572 10.6C249.372 15 249.272 18.5333 249.272 21.2C249.272 21.4 249.105 21.5 248.772 21.5C248.439 21.5 248.239 21.4 248.172 21.2C247.172 16.0667 245.305 12.2333 242.572 9.7C239.839 7.1 236.472 5.79999 232.472 5.79999C230.539 5.79999 229.239 6.23333 228.572 7.1C227.972 7.9 227.672 9.46666 227.672 11.8V57.9C227.672 59.9667 227.872 61.4667 228.272 62.4C228.672 63.3333 229.439 63.9667 230.572 64.3C231.705 64.6333 233.505 64.8 235.972 64.8C236.172 64.8 236.272 65 236.272 65.4C236.272 65.8 236.172 66 235.972 66C233.572 66 231.672 65.9667 230.272 65.9L221.972 65.8L213.872 65.9C212.472 65.9667 210.539 66 208.072 66C207.872 66 207.772 65.8 207.772 65.4C207.772 65 207.872 64.8 208.072 64.8C210.472 64.8 212.239 64.6333 213.372 64.3C214.572 63.9667 215.372 63.3333 215.772 62.4C216.239 61.4 216.472 59.9 216.472 57.9V11.6C216.472 9.33333 216.172 7.8 215.572 7C214.972 6.2 213.739 5.79999 211.872 5.79999Z" fill="black"/>
</svg>
