<svg width="340" height="68" viewBox="0 0 340 68" fill="none" xmlns="http://www.w3.org/2000/svg">
<path d="M72.7 64.8C73.0333 64.8 73.2 65 73.2 65.4C73.2 65.8 73.0333 66 72.7 66C71.3667 66 69.3 65.9333 66.5 65.8C63.5667 65.6667 61.4667 65.6 60.2 65.6C58.5333 65.6 56.5 65.6667 54.1 65.8C51.8333 65.9333 50.0333 66 48.7 66C48.4333 66 48.3 65.8 48.3 65.4C48.3 65 48.4333 64.8 48.7 64.8C50.4333 64.8 51.6667 64.6333 52.4 64.3C53.2 63.9 53.6 63.2333 53.6 62.3C53.6 61.1667 52.9333 59.2667 51.6 56.6L41.2 36.1H23.4L16.3 51.8C15.4333 53.7333 15 55.5333 15 57.2C15 59.6 15.8333 61.4667 17.5 62.8C19.2333 64.1333 21.5333 64.8 24.4 64.8C24.7333 64.8 24.9 65 24.9 65.4C24.9 65.8 24.7333 66 24.4 66C23.2 66 21.4667 65.9333 19.2 65.8C16.6667 65.6667 14.4667 65.6 12.6 65.6C10.8 65.6 8.63333 65.6667 6.1 65.8C3.83333 65.9333 2 66 0.6 66C0.333333 66 0.2 65.8 0.2 65.4C0.2 65 0.333333 64.8 0.6 64.8C2.46667 64.8 4.03333 64.4333 5.3 63.7C6.56667 62.9 7.83333 61.5333 9.1 59.6C10.3667 57.6 11.8667 54.6667 13.6 50.8L35.3 3.1C35.4333 2.9 35.7333 2.8 36.2 2.8C36.7333 2.8 37.0333 2.9 37.1 3.1L62.1 52.3C64.4333 57.0333 66.3667 60.3 67.9 62.1C69.4333 63.9 71.0333 64.8 72.7 64.8ZM24.7 33.3H39.8L31.8 17.5L24.7 33.3ZM108.582 30.9C114.182 31.5667 118.615 33.4333 121.882 36.5C125.215 39.5667 126.882 43.3667 126.882 47.9C126.882 51.3667 125.882 54.5 123.882 57.3C121.882 60.1 119.115 62.3333 115.582 64C112.049 65.6 108.115 66.4 103.782 66.4C101.915 66.4 99.782 66.3 97.382 66.1C96.4487 66.0333 95.282 65.9667 93.882 65.9C92.5487 65.8333 91.0487 65.8 89.382 65.8L82.082 65.9C80.7487 65.9667 78.9487 66 76.682 66C76.482 66 76.382 65.8 76.382 65.4C76.382 65 76.482 64.8 76.682 64.8C78.6154 64.8 80.082 64.6333 81.082 64.3C82.082 63.9 82.782 63.2333 83.182 62.3C83.6487 61.3 83.882 59.8333 83.882 57.9V11.6C83.882 8.8 83.4154 6.96666 82.482 6.1C81.5487 5.16666 79.6487 4.7 76.782 4.7C76.6487 4.7 76.582 4.5 76.582 4.1C76.582 3.7 76.6487 3.5 76.782 3.5L82.082 3.6C85.1487 3.73333 87.582 3.8 89.382 3.8C91.2487 3.8 93.182 3.7 95.182 3.5C95.8487 3.43333 96.8487 3.36666 98.182 3.3C99.5154 3.23333 100.682 3.2 101.682 3.2C107.749 3.2 112.449 4.3 115.782 6.5C119.115 8.7 120.782 11.9 120.782 16.1C120.782 19.3 119.715 22.2 117.582 24.8C115.515 27.4 112.515 29.4333 108.582 30.9ZM100.182 5.4C98.2487 5.4 96.9154 5.86667 96.182 6.8C95.4487 7.66666 95.082 9.33333 95.082 11.8V30.8L99.082 30.9C102.549 30.9 105.215 29.6 107.082 27C108.949 24.4 109.882 21.0667 109.882 17C109.882 13.2 109.049 10.3333 107.382 8.4C105.715 6.4 103.315 5.4 100.182 5.4ZM102.082 63.9C110.815 63.9 115.182 59.3667 115.182 50.3C115.182 45.1667 113.949 41.1 111.482 38.1C109.015 35.1 105.282 33.6 100.282 33.6C98.3487 33.6 96.6154 33.6667 95.082 33.8V57.9C95.082 60.1 95.5154 61.6667 96.382 62.6C97.2487 63.4667 99.1487 63.9 102.082 63.9ZM168.655 67.2C162.455 67.2 156.921 65.7667 152.055 62.9C147.255 59.9667 143.521 56.0333 140.855 51.1C138.255 46.1 136.955 40.6667 136.955 34.8C136.955 27.9333 138.688 22.0667 142.155 17.2C145.621 12.2667 150.055 8.56666 155.455 6.1C160.921 3.63333 166.488 2.4 172.155 2.4C178.488 2.4 184.055 3.9 188.855 6.9C193.655 9.83333 197.321 13.7333 199.855 18.6C202.455 23.4667 203.755 28.6333 203.755 34.1C203.755 40.1667 202.155 45.7333 198.955 50.8C195.755 55.8667 191.455 59.8667 186.055 62.8C180.721 65.7333 174.921 67.2 168.655 67.2ZM171.955 64.7C175.688 64.7 179.021 63.6333 181.955 61.5C184.955 59.3 187.288 56.1333 188.955 52C190.621 47.8 191.455 42.8 191.455 37C191.455 30.8667 190.521 25.4 188.655 20.6C186.788 15.7333 184.088 11.9333 180.555 9.2C177.021 6.46666 172.888 5.1 168.155 5.1C162.088 5.1 157.421 7.4 154.155 12C150.888 16.5333 149.255 22.9 149.255 31.1C149.255 37.5667 150.221 43.3667 152.155 48.5C154.155 53.5667 156.855 57.5333 160.255 60.4C163.721 63.2667 167.621 64.7 171.955 64.7ZM265.717 16.3C265.717 12.7 264.884 9.86667 263.217 7.8C261.617 5.73333 259.351 4.7 256.417 4.7C256.284 4.7 256.217 4.5 256.217 4.1C256.217 3.7 256.284 3.5 256.417 3.5L261.217 3.6C263.751 3.73333 265.784 3.8 267.317 3.8C268.584 3.8 270.417 3.73333 272.817 3.6L277.417 3.5C277.551 3.5 277.617 3.7 277.617 4.1C277.617 4.5 277.551 4.7 277.417 4.7C274.817 4.7 272.784 5.73333 271.317 7.8C269.851 9.86667 269.117 12.7 269.117 16.3V44.1C269.117 48.7667 268.084 52.8667 266.017 56.4C263.951 59.9333 261.017 62.6667 257.217 64.6C253.484 66.4667 249.151 67.4 244.217 67.4C239.284 67.4 234.917 66.4667 231.117 64.6C227.317 62.7333 224.317 60.0333 222.117 56.5C219.984 52.9 218.917 48.7 218.917 43.9V11.6C218.917 9.6 218.717 8.13333 218.317 7.2C217.984 6.26666 217.317 5.63333 216.317 5.29999C215.384 4.9 213.884 4.7 211.817 4.7C211.617 4.7 211.517 4.5 211.517 4.1C211.517 3.7 211.617 3.5 211.817 3.5L217.117 3.6C220.184 3.73333 222.617 3.8 224.417 3.8C226.417 3.8 228.951 3.73333 232.017 3.6L237.117 3.5C237.317 3.5 237.417 3.7 237.417 4.1C237.417 4.5 237.317 4.7 237.117 4.7C235.051 4.7 233.517 4.9 232.517 5.29999C231.584 5.7 230.917 6.4 230.517 7.4C230.184 8.33333 230.017 9.8 230.017 11.8V40.4C230.017 48.3333 231.584 54.2 234.717 58C237.851 61.8 242.284 63.7 248.017 63.7C253.551 63.7 257.884 62.0333 261.017 58.7C264.151 55.3 265.717 50.4667 265.717 44.2V16.3ZM301.13 5.79999C293.196 5.79999 287.496 10.9667 284.03 21.3C283.963 21.5 283.763 21.6 283.43 21.6C283.096 21.5333 282.93 21.4 282.93 21.2C283.196 18.5333 283.496 15.1 283.83 10.9C284.163 6.63333 284.33 3.43333 284.33 1.3C284.33 0.966666 284.496 0.799999 284.83 0.799999C285.23 0.799999 285.43 0.966666 285.43 1.3C285.43 2.76667 287.33 3.5 291.13 3.5C296.863 3.7 303.563 3.8 311.23 3.8C315.163 3.8 319.33 3.73333 323.73 3.6L330.53 3.5C333.063 3.5 334.896 3.33333 336.03 2.99999C337.23 2.66666 337.996 2 338.33 0.999996C338.396 0.733329 338.596 0.599996 338.93 0.599996C339.33 0.599996 339.53 0.733329 339.53 0.999996C339.33 3 339.096 6.2 338.83 10.6C338.63 15 338.53 18.5333 338.53 21.2C338.53 21.4 338.363 21.5 338.03 21.5C337.696 21.5 337.496 21.4 337.43 21.2C336.43 16.0667 334.563 12.2333 331.83 9.7C329.096 7.1 325.73 5.79999 321.73 5.79999C319.796 5.79999 318.496 6.23333 317.83 7.1C317.23 7.9 316.93 9.46666 316.93 11.8V57.9C316.93 59.9667 317.13 61.4667 317.53 62.4C317.93 63.3333 318.696 63.9667 319.83 64.3C320.963 64.6333 322.763 64.8 325.23 64.8C325.43 64.8 325.53 65 325.53 65.4C325.53 65.8 325.43 66 325.23 66C322.83 66 320.93 65.9667 319.53 65.9L311.23 65.8L303.13 65.9C301.73 65.9667 299.796 66 297.33 66C297.13 66 297.03 65.8 297.03 65.4C297.03 65 297.13 64.8 297.33 64.8C299.73 64.8 301.496 64.6333 302.63 64.3C303.83 63.9667 304.63 63.3333 305.03 62.4C305.496 61.4 305.73 59.9 305.73 57.9V11.6C305.73 9.33333 305.43 7.8 304.83 7C304.23 6.2 302.996 5.79999 301.13 5.79999Z" fill="black"/>
</svg>
