<svg width="311" height="96" viewBox="0 0 311 96" fill="none" xmlns="http://www.w3.org/2000/svg">
<path d="M95.6 92.2C95.9 92.2 96.05 92.5 96.05 93.1C96.05 93.7 95.9 94 95.6 94H78.8C77.2 94 75.85 94.05 74.75 94.15C73.65 94.25 72.75 94.3 72.05 94.3C70.45 94.3 69.05 93.95 67.85 93.25C66.75 92.45 65.35 91.05 63.65 89.05C62.05 87.05 59.15 83.2 54.95 77.5C54.45 76.8 53.85 76.05 53.15 75.25C52.55 74.35 51.85 73.35 51.05 72.25L31.4 45.85L28.1 49.15V81.85C28.1 84.95 28.35 87.2 28.85 88.6C29.35 90 30.3 90.95 31.7 91.45C33.2 91.95 35.55 92.2 38.75 92.2C39.15 92.2 39.35 92.5 39.35 93.1C39.35 93.7 39.15 94 38.75 94C35.45 94 32.85 93.95 30.95 93.85L19.7 93.7L8.6 93.85C6.6 93.95 3.9 94 0.5 94C0.3 94 0.2 93.7 0.2 93.1C0.2 92.5 0.3 92.2 0.5 92.2C3.7 92.2 6.05 91.95 7.55 91.45C9.05 90.95 10.05 90 10.55 88.6C11.15 87.1 11.45 84.85 11.45 81.85V12.4C11.45 9.4 11.15 7.2 10.55 5.8C10.05 4.39999 9.05 3.44999 7.55 2.94999C6.15 2.34999 3.9 2.04999 0.8 2.04999C0.5 2.04999 0.35 1.75 0.35 1.15C0.35 0.549999 0.5 0.25 0.8 0.25L8.75 0.399998C13.35 0.599995 17 0.699994 19.7 0.699994C22.7 0.699994 26.5 0.599995 31.1 0.399998L38.75 0.25C39.05 0.25 39.2 0.549999 39.2 1.15C39.2 1.75 39.05 2.04999 38.75 2.04999C35.65 2.04999 33.35 2.34999 31.85 2.94999C30.45 3.55 29.45 4.6 28.85 6.1C28.35 7.5 28.1 9.69999 28.1 12.7V44.5L56.3 15.7C59.2 12.8 60.65 10.15 60.65 7.74999C60.65 5.94999 59.85 4.54999 58.25 3.54999C56.65 2.54999 54.4 2.04999 51.5 2.04999C51.2 2.04999 51.05 1.75 51.05 1.15C51.05 0.549999 51.2 0.25 51.5 0.25L58.55 0.399998C62.95 0.599995 67.05 0.699994 70.85 0.699994C74.95 0.699994 79.2 0.599995 83.6 0.399998L90.35 0.25C90.65 0.25 90.8 0.549999 90.8 1.15C90.8 1.75 90.65 2.04999 90.35 2.04999C85.75 2.04999 80.7 3.4 75.2 6.1C69.7 8.7 64.7 12.2 60.2 16.6L43.25 33.85L65.45 63.85C71.95 73.15 76.8 79.75 80 83.65C83.3 87.45 85.95 89.85 87.95 90.85C89.95 91.75 92.5 92.2 95.6 92.2ZM157.141 85.9C157.541 85.9 157.791 86.15 157.891 86.65C158.091 87.05 157.991 87.35 157.591 87.55L142.141 94.9C141.741 95.1 141.241 95.2 140.641 95.2C139.141 95.2 137.641 94.45 136.141 92.95C134.741 91.45 133.741 89.4 133.141 86.8L126.241 90.55C123.641 91.85 120.941 92.95 118.141 93.85C115.341 94.65 112.841 95.05 110.641 95.05C107.441 95.05 104.891 94.25 102.991 92.65C101.191 90.95 100.291 88.55 100.291 85.45C100.291 83.15 100.841 81.3 101.941 79.9C103.141 78.5 104.791 77.35 106.891 76.45C109.091 75.45 112.541 74.15 117.241 72.55L132.541 67.6V55.75C132.541 49.75 131.941 45.35 130.741 42.55C129.541 39.65 127.591 38.2 124.891 38.2C122.491 38.2 120.591 39.1 119.191 40.9C117.791 42.7 116.941 45.65 116.641 49.75C116.041 55.35 113.091 58.15 107.791 58.15C103.091 58.15 100.741 56.1 100.741 52C100.741 49.3 102.441 46.6 105.841 43.9C109.241 41.2 113.341 39 118.141 37.3C122.941 35.6 127.141 34.75 130.741 34.75C135.441 34.75 139.241 36.15 142.141 38.95C145.141 41.75 146.641 45.85 146.641 51.25V77.8C146.641 80.7 147.141 82.95 148.141 84.55C149.241 86.15 150.741 86.95 152.641 86.95C154.041 86.95 155.491 86.6 156.991 85.9H157.141ZM132.691 84.4C132.591 83.7 132.541 82.65 132.541 81.25V70.15L124.291 73.15C121.591 74.15 119.641 75.25 118.441 76.45C117.341 77.65 116.791 79.1 116.791 80.8C116.791 82.9 117.391 84.55 118.591 85.75C119.791 86.95 121.291 87.55 123.091 87.55C125.291 87.55 127.841 86.85 130.741 85.45L132.691 84.4ZM206.026 83.5C206.426 83.5 206.726 83.7 206.926 84.1C207.226 84.5 207.226 84.8 206.926 85C203.226 88.7 199.626 91.45 196.126 93.25C192.626 94.95 188.926 95.8 185.026 95.8C180.626 95.8 176.876 94.75 173.776 92.65C170.676 90.55 169.126 87 169.126 82V48.7C169.126 45.6 168.576 43.45 167.476 42.25C166.376 41.05 164.376 40.45 161.476 40.45C161.376 40.45 161.226 40.3 161.026 40C160.926 39.7 160.876 39.4 160.876 39.1C160.876 38.7 160.926 38.4 161.026 38.2C161.126 37.9 161.276 37.75 161.476 37.75C166.576 37.55 170.676 36.45 173.776 34.45C176.976 32.45 179.426 29.4 181.126 25.3C181.326 24.9 181.726 24.7 182.326 24.7C183.026 24.7 183.376 24.9 183.376 25.3V37.3C189.176 37.2 195.676 36.75 202.876 35.95C203.076 35.95 203.276 36.35 203.476 37.15C203.776 37.85 203.926 38.65 203.926 39.55C203.926 40.55 203.726 41.55 203.326 42.55C203.026 43.45 202.676 43.85 202.276 43.75C195.776 42.35 189.476 41.6 183.376 41.5V77.05C183.376 80.85 184.326 83.65 186.226 85.45C188.226 87.25 190.826 88.15 194.026 88.15C198.026 88.15 201.926 86.65 205.726 83.65L206.026 83.5ZM213.666 94C213.366 94 213.216 93.7 213.216 93.1C213.216 92.5 213.366 92.2 213.666 92.2C216.766 92.2 218.866 91.5 219.966 90.1C221.066 88.6 221.616 85.85 221.616 81.85V55C221.616 51.6 221.266 49.15 220.566 47.65C219.866 46.15 218.716 45.4 217.116 45.4C215.816 45.4 213.966 45.95 211.566 47.05H211.416C211.016 47.05 210.716 46.8 210.516 46.3C210.316 45.7 210.366 45.35 210.666 45.25L233.316 34.75L233.766 34.6C234.266 34.6 234.766 34.85 235.266 35.35C235.766 35.85 236.016 36.3 236.016 36.7V40C235.816 44 235.716 48.9 235.716 54.7V81.85C235.716 85.85 236.266 88.6 237.366 90.1C238.566 91.5 240.716 92.2 243.816 92.2C244.116 92.2 244.266 92.5 244.266 93.1C244.266 93.7 244.116 94 243.816 94C241.216 94 239.166 93.95 237.666 93.85L228.666 93.7L219.816 93.85C218.316 93.95 216.266 94 213.666 94ZM228.066 19.75C225.166 19.75 222.916 18.95 221.316 17.35C219.716 15.75 218.916 13.5 218.916 10.6C218.916 8 219.716 5.95 221.316 4.45C223.016 2.85 225.266 2.04999 228.066 2.04999C230.866 2.04999 233.016 2.79999 234.516 4.29999C236.016 5.8 236.766 7.9 236.766 10.6C236.766 13.5 236.016 15.75 234.516 17.35C233.016 18.95 230.866 19.75 228.066 19.75Z" fill="black"/>
<path d="M310.071 85.9C310.471 85.9 310.721 86.15 310.821 86.65C311.021 87.05 310.921 87.35 310.521 87.55L295.071 94.9C294.671 95.1 294.171 95.2 293.571 95.2C292.071 95.2 290.571 94.45 289.071 92.95C287.671 91.45 286.671 89.4 286.071 86.8L279.171 90.55C276.571 91.85 273.871 92.95 271.071 93.85C268.271 94.65 265.771 95.05 263.571 95.05C260.371 95.05 257.821 94.25 255.921 92.65C254.121 90.95 253.221 88.55 253.221 85.45C253.221 83.15 253.771 81.3 254.871 79.9C256.071 78.5 257.721 77.35 259.821 76.45C262.021 75.45 265.471 74.15 270.171 72.55L285.471 67.6V55.75C285.471 49.75 284.871 45.35 283.671 42.55C282.471 39.65 280.521 38.2 277.821 38.2C275.421 38.2 273.521 39.1 272.121 40.9C270.721 42.7 269.871 45.65 269.571 49.75C268.971 55.35 266.021 58.15 260.721 58.15C256.021 58.15 253.671 56.1 253.671 52C253.671 49.3 255.371 46.6 258.771 43.9C262.171 41.2 266.271 39 271.071 37.3C275.871 35.6 280.071 34.75 283.671 34.75C288.371 34.75 292.171 36.15 295.071 38.95C298.071 41.75 299.571 45.85 299.571 51.25V77.8C299.571 80.7 300.071 82.95 301.071 84.55C302.171 86.15 303.671 86.95 305.571 86.95C306.971 86.95 308.421 86.6 309.921 85.9H310.071ZM285.621 84.4C285.521 83.7 285.471 82.65 285.471 81.25V70.15L277.221 73.15C274.521 74.15 272.571 75.25 271.371 76.45C270.271 77.65 269.721 79.1 269.721 80.8C269.721 82.9 270.321 84.55 271.521 85.75C272.721 86.95 274.221 87.55 276.021 87.55C278.221 87.55 280.771 86.85 283.671 85.45L285.621 84.4Z" fill="white"/>
</svg>
