<svg width="355" height="66" viewBox="0 0 355 66" fill="none" xmlns="http://www.w3.org/2000/svg">
<path d="M81.3 62.8C81.4333 62.8 81.5 63 81.5 63.4C81.5 63.8 81.4333 64 81.3 64C79.0333 64 77.2333 63.9667 75.9 63.9L68.5 63.8L61 63.9C59.7333 63.9667 58 64 55.8 64C55.6 64 55.5 63.8 55.5 63.4C55.5 63 55.6 62.8 55.8 62.8C58.6 62.8 60.5 62.4667 61.5 61.8C62.5 61.1333 63 59.7333 63 57.6L62.9 55.9L60.8 15L40.2 63.3C40.0667 63.5667 39.8 63.7 39.4 63.7C39 63.7 38.7333 63.5667 38.6 63.3L13.3 15.2L12.5 51.3C12.4333 54.9 13.1333 57.7333 14.6 59.8C16.1333 61.8 18.2667 62.8 21 62.8C21.2 62.8 21.3 63 21.3 63.4C21.3 63.8 21.2 64 21 64C19.2 64 17.8 63.9667 16.8 63.9L11.3 63.8L5 63.9C3.93333 63.9667 2.5 64 0.7 64C0.5 64 0.4 63.8 0.4 63.4C0.4 63 0.5 62.8 0.7 62.8C3.43333 62.8 5.6 61.7667 7.2 59.7C8.8 57.6333 9.63333 54.8333 9.7 51.3L10.6 9.9L10.5 9.79999C9.16667 7.33333 7.76667 5.53333 6.3 4.4C4.9 3.26666 3.26667 2.7 1.4 2.7C1.2 2.7 1.1 2.5 1.1 2.1C1.1 1.7 1.2 1.5 1.4 1.5L6.1 1.6C7.03333 1.66666 8.23333 1.7 9.7 1.7L15 1.6C15.6 1.53333 16.3667 1.5 17.3 1.5C18.1667 1.5 18.8333 1.8 19.3 2.39999C19.7667 2.99999 20.6333 4.43333 21.9 6.7L43.7 47.6L62.7 4C63.1 3.06666 63.5 2.43333 63.9 2.1C64.3667 1.7 64.9667 1.5 65.7 1.5C66.3 1.5 66.9667 1.53333 67.7 1.6C68.5 1.66666 69.4 1.7 70.4 1.7L76.3 1.6C77.2333 1.53333 78.5667 1.5 80.3 1.5C80.5 1.5 80.6 1.7 80.6 2.1C80.6 2.5 80.5 2.7 80.3 2.7C77.1667 2.7 74.9 3.33333 73.5 4.6C72.1 5.86666 71.4667 7.83333 71.6 10.5L74 55.9C74.1333 57.9667 74.3667 59.4667 74.7 60.4C75.1 61.3333 75.7667 61.9667 76.7 62.3C77.7 62.6333 79.2333 62.8 81.3 62.8ZM146.242 1.5C146.376 1.5 146.442 1.7 146.442 2.1C146.442 2.5 146.376 2.7 146.242 2.7C144.176 2.7 141.642 4 138.642 6.6C135.642 9.13333 132.976 12.3333 130.642 16.2L120.242 33.6V55.9C120.242 57.9667 120.409 59.4667 120.742 60.4C121.076 61.3333 121.709 61.9667 122.642 62.3C123.642 62.6333 125.209 62.8 127.342 62.8C127.542 62.8 127.642 63 127.642 63.4C127.642 63.8 127.542 64 127.342 64C125.142 64 123.409 63.9667 122.142 63.9L114.642 63.8L107.242 63.9C105.909 63.9667 104.109 64 101.842 64C101.709 64 101.642 63.8 101.642 63.4C101.642 63 101.709 62.8 101.842 62.8C103.976 62.8 105.542 62.6333 106.542 62.3C107.542 61.9667 108.209 61.3333 108.542 60.4C108.942 59.4 109.142 57.9 109.142 55.9V35.7L94.5422 13C92.0755 9.13333 90.0089 6.46666 88.3422 5C86.7422 3.46666 85.3755 2.7 84.2422 2.7C84.0422 2.7 83.9422 2.5 83.9422 2.1C83.9422 1.7 84.0422 1.5 84.2422 1.5L87.3422 1.6C88.8089 1.73333 89.8422 1.8 90.4422 1.8C92.7755 1.8 96.1422 1.73333 100.542 1.6L107.142 1.5C107.276 1.5 107.342 1.7 107.342 2.1C107.342 2.5 107.276 2.7 107.142 2.7C106.009 2.7 105.109 2.96666 104.442 3.5C103.842 4.03333 103.542 4.73333 103.542 5.59999C103.542 6.66666 104.009 7.93333 104.942 9.4L118.642 31L127.842 15.3C129.642 12.3 130.542 9.73333 130.542 7.6C130.542 6 130.042 4.8 129.042 4C128.109 3.13333 126.742 2.7 124.942 2.7C124.742 2.7 124.642 2.5 124.642 2.1C124.642 1.7 124.742 1.5 124.942 1.5L130.242 1.6C133.309 1.73333 136.042 1.8 138.442 1.8C139.576 1.8 140.942 1.73333 142.542 1.6L146.242 1.5ZM163.056 11.6C163.056 14 163.656 16.1333 164.856 18C166.123 19.8667 167.656 21.5 169.456 22.9C171.256 24.3 173.69 26 176.756 28C180.09 30.1333 182.756 32 184.756 33.6C186.756 35.2 188.456 37.1667 189.856 39.5C191.256 41.7667 191.956 44.4 191.956 47.4C191.956 50.8667 191.023 53.9667 189.156 56.7C187.29 59.3667 184.69 61.4667 181.356 63C178.09 64.4667 174.423 65.2 170.356 65.2C167.356 65.2 164.223 64.8 160.956 64C157.69 63.1333 155.49 62.2 154.356 61.2C154.023 60.9333 153.756 60.7 153.556 60.5C153.423 60.2333 153.356 59.8333 153.356 59.3L153.056 43.4V43.3C153.056 43.0333 153.223 42.9 153.556 42.9C153.89 42.8333 154.09 42.9333 154.156 43.2C156.156 47.2667 157.89 50.5667 159.356 53.1C160.89 55.6333 162.79 57.8667 165.056 59.8C167.39 61.7333 170.023 62.7 172.956 62.7C175.623 62.7 177.823 62 179.556 60.6C181.29 59.1333 182.156 56.6667 182.156 53.2C182.156 50.2667 181.49 47.7 180.156 45.5C178.89 43.3 177.323 41.4333 175.456 39.9C173.59 38.3667 171.023 36.5333 167.756 34.4C164.556 32.3333 162.056 30.5667 160.256 29.1C158.523 27.6333 157.023 25.8667 155.756 23.8C154.49 21.7333 153.856 19.3 153.856 16.5C153.856 12.9667 154.856 10 156.856 7.6C158.923 5.13333 161.556 3.33333 164.756 2.2C167.956 0.999997 171.323 0.399996 174.856 0.399996C177.19 0.399996 179.556 0.633331 181.956 1.1C184.356 1.5 186.29 2 187.756 2.6C188.356 2.86666 188.756 3.16667 188.956 3.5C189.156 3.76667 189.256 4.13333 189.256 4.6V19.3C189.256 19.5 189.09 19.6667 188.756 19.8C188.423 19.8667 188.223 19.8 188.156 19.6L187.356 17.7C185.69 13.5 183.723 9.93333 181.456 6.99999C179.256 4.06666 176.156 2.6 172.156 2.6C169.49 2.6 167.29 3.36666 165.556 4.9C163.89 6.43333 163.056 8.66666 163.056 11.6ZM246.721 48.1C246.721 47.9667 246.854 47.9 247.121 47.9C247.321 47.9 247.488 47.9667 247.621 48.1C247.821 48.1667 247.921 48.2333 247.921 48.3C247.254 53.5 246.921 58.2333 246.921 62.5C246.921 63.0333 246.821 63.4333 246.621 63.7C246.421 63.9 246.021 64 245.421 64H201.221C201.021 64 200.921 63.8 200.921 63.4C200.921 63 201.021 62.8 201.221 62.8C203.354 62.8 204.888 62.6333 205.821 62.3C206.821 61.9667 207.488 61.3333 207.821 60.4C208.154 59.4 208.321 57.9 208.321 55.9V9.6C208.321 7.6 208.154 6.13333 207.821 5.2C207.488 4.26666 206.821 3.63333 205.821 3.29999C204.821 2.9 203.288 2.7 201.221 2.7C201.021 2.7 200.921 2.5 200.921 2.1C200.921 1.7 201.021 1.5 201.221 1.5H243.621C244.288 1.5 244.621 1.8 244.621 2.39999L244.821 15.7C244.821 15.8333 244.621 15.9333 244.221 16C243.888 16.0667 243.688 16 243.621 15.8C242.554 11.9333 240.754 9.06666 238.221 7.2C235.688 5.33333 232.354 4.4 228.221 4.4H225.221C223.221 4.4 221.754 4.83333 220.821 5.7C219.888 6.56666 219.421 7.9 219.421 9.7V30.1H227.721C231.588 30.1 234.554 29.4333 236.621 28.1C238.688 26.7667 239.721 24.9 239.721 22.5C239.721 22.3 239.888 22.2 240.221 22.2C240.621 22.2 240.821 22.3 240.821 22.5L240.721 31.5L240.821 36.3C240.954 38.5667 241.021 40.3667 241.021 41.7C241.021 41.8333 240.821 41.9 240.421 41.9C240.021 41.9 239.821 41.8333 239.821 41.7C239.821 38.9667 238.754 36.8333 236.621 35.3C234.554 33.7 231.554 32.9 227.621 32.9H219.421V55.5C219.421 57.4333 219.788 58.8667 220.521 59.8C221.254 60.7333 222.421 61.2 224.021 61.2H227.321C232.521 61.2 236.688 60.1333 239.821 58C242.954 55.8667 245.254 52.5667 246.721 48.1ZM273.597 55.5C273.597 57.2333 273.73 58.5 273.997 59.3C274.264 60.0333 274.764 60.5333 275.497 60.8C276.297 61.0667 277.564 61.2 279.297 61.2H282.697C287.897 61.2 292.397 59.8333 296.197 57.1C299.997 54.3 302.53 50.5333 303.797 45.8C303.797 45.6667 303.93 45.6 304.197 45.6C304.33 45.6 304.464 45.6667 304.597 45.8C304.797 45.8667 304.897 45.9333 304.897 46C304.297 52.6 303.997 58.1 303.997 62.5C303.997 63.0333 303.864 63.4333 303.597 63.7C303.397 63.9 303.03 64 302.497 64H255.297C255.164 64 255.097 63.8 255.097 63.4C255.097 63 255.164 62.8 255.297 62.8C257.43 62.8 258.964 62.6333 259.897 62.3C260.897 61.9667 261.564 61.3333 261.897 60.4C262.297 59.4 262.497 57.9 262.497 55.9V9.6C262.497 7.6 262.297 6.13333 261.897 5.2C261.564 4.26666 260.897 3.63333 259.897 3.29999C258.897 2.9 257.364 2.7 255.297 2.7C255.164 2.7 255.097 2.5 255.097 2.1C255.097 1.7 255.164 1.5 255.297 1.5L260.397 1.6C263.464 1.73333 265.997 1.8 267.997 1.8C269.997 1.8 272.53 1.73333 275.597 1.6L280.697 1.5C280.897 1.5 280.997 1.7 280.997 2.1C280.997 2.5 280.897 2.7 280.697 2.7C278.63 2.7 277.097 2.9 276.097 3.29999C275.097 3.63333 274.43 4.3 274.097 5.3C273.764 6.23333 273.597 7.7 273.597 9.7V55.5ZM354.489 15.7C354.489 15.8333 354.289 15.9333 353.889 16C353.556 16.0667 353.356 16 353.289 15.8C352.222 11.9333 350.422 9.06666 347.889 7.2C345.356 5.33333 342.022 4.4 337.889 4.4H334.889C332.889 4.4 331.422 4.83333 330.489 5.7C329.556 6.56666 329.089 7.9 329.089 9.7V31.3H336.289C340.156 31.3 343.089 30.6333 345.089 29.3C347.156 27.9 348.189 26 348.189 23.6C348.189 23.4667 348.389 23.4 348.789 23.4C349.189 23.4 349.389 23.4667 349.389 23.6L349.289 32.7C349.289 34.8333 349.322 36.4333 349.389 37.5L349.489 42.8C349.489 43 349.289 43.1 348.889 43.1C348.489 43.1 348.289 43 348.289 42.8C348.289 40.1333 347.222 38.0333 345.089 36.5C343.022 34.9 340.056 34.1 336.189 34.1H329.089V55.5C329.089 57.5667 329.356 59.1 329.889 60.1C330.422 61.1 331.422 61.8 332.889 62.2C334.356 62.6 336.656 62.8 339.789 62.8C339.922 62.8 339.989 63 339.989 63.4C339.989 63.8 339.922 64 339.789 64C337.056 64 334.922 63.9667 333.389 63.9L323.189 63.8L315.689 63.9C314.356 63.9667 312.522 64 310.189 64C309.989 64 309.889 63.8 309.889 63.4C309.889 63 309.989 62.8 310.189 62.8C312.522 62.8 314.222 62.6333 315.289 62.3C316.356 61.9667 317.056 61.3333 317.389 60.4C317.789 59.4 317.989 57.9 317.989 55.9V9.6C317.989 7.6 317.822 6.13333 317.489 5.2C317.156 4.26666 316.489 3.63333 315.489 3.29999C314.489 2.9 312.956 2.7 310.889 2.7C310.689 2.7 310.589 2.5 310.589 2.1C310.589 1.7 310.689 1.5 310.889 1.5H353.289C353.956 1.5 354.289 1.8 354.289 2.39999L354.489 15.7Z" fill="black"/>
</svg>
